<?xml version="1.0" encoding="UTF-8" standalone="no"?>
<!--
   ***************************************************************************
   Bundesanstalt fuer Strassenwesen
   RWB-Symbol Nr.: 9
   Bezeichnung:
   Hafen, Faehrhafen, Faehre
   Ausdehnung in cm:
         X_min     X_max     Y_min     Y_max
         0.00000  15.00000   0.00000  15.00000
-->
<svg
   xmlns:dc="http://purl.org/dc/elements/1.1/"
   xmlns:cc="http://web.resource.org/cc/"
   xmlns:rdf="http://www.w3.org/1999/02/22-rdf-syntax-ns#"
   xmlns:svg="http://www.w3.org/2000/svg"
   xmlns="http://www.w3.org/2000/svg"
   xmlns:sodipodi="http://sodipodi.sourceforge.net/DTD/sodipodi-0.dtd"
   xmlns:inkscape="http://www.inkscape.org/namespaces/inkscape"
   width="140"
   height="80"
   version="1.0"
   id="svg2"
   sodipodi:version="0.32"
   inkscape:version="0.45"
   sodipodi:docname="Ferry.svg"
   sodipodi:docbase="D:\Wikivoyage"
   inkscape:output_extension="org.inkscape.output.svg.inkscape"
   sodipodi:modified="true">
  <metadata
     id="metadata17">
    <rdf:RDF>
      <cc:Work
         rdf:about="">
        <dc:format>image/svg+xml</dc:format>
        <dc:type
           rdf:resource="http://purl.org/dc/dcmitype/StillImage" />
      </cc:Work>
    </rdf:RDF>
  </metadata>
  <defs
     id="defs15" />
  <sodipodi:namedview
     inkscape:window-height="744"
     inkscape:window-width="1280"
     inkscape:pageshadow="2"
     inkscape:pageopacity="0.0"
     borderopacity="1.0"
     bordercolor="#666666"
     pagecolor="#ffffff"
     id="base"
     inkscape:zoom="2.6866667"
     inkscape:cx="75"
     inkscape:cy="40.482527"
     inkscape:window-x="-4"
     inkscape:window-y="-4"
     inkscape:current-layer="svg2"
     width="140px"
     height="80px" />
<!--
   ***************************************************************************
--><!--
      INHALT
-->  <path
     d="M 137.16377,60.352472 L 135.16377,61.185772 L 133.02092,62.078602 C 128.44949,63.983362 123.30665,63.983362 118.73523,62.078602 L 114.44951,60.292942 C 109.87809,58.388182 104.73525,58.388182 100.16383,60.292942 L 95.878022,62.078602 C 91.306596,63.983362 86.163748,63.983362 81.592327,62.078602 L 77.306617,60.292942 C 75.043317,59.349902 72.615679,58.864372 70.163772,58.864372 C 67.711865,58.864372 65.284227,59.349902 63.020927,60.292942 L 58.735217,62.078602 C 54.163796,63.983362 49.020948,63.983362 44.449532,62.078602 L 40.163712,60.292942 C 35.592292,58.388182 30.449452,58.388182 25.878032,60.292942 L 21.592312,62.078602 C 17.020892,63.983362 11.878052,63.983362 7.3066317,62.078602 L 5.1637717,61.185772 L 3.1637717,60.352472 L 3.1637717,68.352472 L 5.1637717,69.185772 L 7.3066317,70.078602 C 11.878052,71.983362 17.020892,71.983362 21.592312,70.078602 L 25.878032,68.292942 C 30.449452,66.388182 35.592292,66.388182 40.163712,68.292942 L 44.449532,70.078602 C 49.020948,71.983362 54.163796,71.983362 58.735217,70.078602 L 63.020927,68.292942 C 65.284227,67.349902 67.711865,66.864372 70.163772,66.864372 C 72.615679,66.864372 75.043317,67.349902 77.306617,68.292942 L 81.592327,70.078602 C 86.163748,71.983362 91.306596,71.983362 95.878022,70.078602 L 100.16383,68.292942 C 104.73525,66.388182 109.87809,66.388182 114.44951,68.292942 L 118.73523,70.078602 C 123.30665,71.983362 128.44949,71.983362 133.02092,70.078602 L 135.16377,69.185772 L 137.16377,68.352472 L 137.16377,60.352472 z "
     id="path6"
     style="fill:#000000;fill-rule:evenodd;stroke:none" />
<!--
       OBERE WASSERWELLE
       UNTERE WASSERWELLE
--><!--
      SCHIFF
-->  <path
     d="M 128.83409,55.260947 C 132.95391,49.377235 135.16377,42.368459 135.16377,35.185772 L 135.16377,33.185772 L 121.83047,33.185772 L 125.16377,26.185772 L 98.163772,26.185772 L 101.49707,19.185772 L 73.163772,19.185772 L 76.163772,13.185772 L 52.163772,13.185772 L 49.163772,19.185772 L 45.323327,26.423527 L 28.830472,26.185772 L 3.6916717,26.185772 L 5.8267717,31.470372 L 5.8267917,31.470386 C 7.1043617,34.632461 8.8716617,37.573746 11.063832,40.186269 L 11.063872,40.186272 L 14.552172,43.833672 L 14.552142,43.833637 C 17.633032,47.5053 19.981482,51.733543 21.470352,56.289448 L 21.470372,56.289472 L 25.878032,54.328641 C 30.449452,52.423882 35.592292,52.423882 40.163712,54.328641 L 44.449532,56.114303 C 49.020948,58.019062 54.163796,58.019062 58.735217,56.114303 L 63.020927,54.328641 C 65.284227,53.385599 67.711865,52.900072 70.163772,52.900072 C 72.615679,52.900072 75.043317,53.385599 77.306617,54.328641 L 81.592327,56.114303 C 86.163748,58.019062 91.306596,58.019062 95.878022,56.114303 L 100.16383,54.328641 C 104.73525,52.423882 109.87809,52.423882 114.44951,54.328641 L 118.73523,56.114303 C 120.99853,57.057342 123.42616,57.542872 125.87807,57.542872 L 126.15759,57.542872 C 127.2294,57.022432 128.15063,56.237015 128.83403,55.261007 L 128.83409,55.260947 z "
     id="path10"
     style="fill:#000000;fill-rule:evenodd;stroke:none"
     sodipodi:nodetypes="cccccccccccccccccccccccccccscccccccccc" />
<!--
      HECK
      AUFBAU
      SCHORNSTEIN UNTERTEIL
      VORDECK
      BUG
      GEWELLTE WASSERLINIE
      SCHORNSTEIN
-->  <path
     d="M 51.926647,13.699752 L 75.926647,13.699752 L 79.259947,6.6997518 L 55.259947,6.6997518 L 51.926647,13.699752 z "
     id="path12"
     style="fill:#000000;fill-rule:evenodd;stroke:none" />
</svg>
