<?xml version="1.0" standalone="no"?>
<!DOCTYPE svg PUBLIC "-//W3C//DTD SVG 20010904//EN"
 "http://www.w3.org/TR/2001/REC-SVG-20010904/DTD/svg10.dtd">
<svg version="1.0" xmlns="http://www.w3.org/2000/svg"
 width="1280.000000pt" height="640.000000pt" viewBox="0 0 1280.000000 640.000000"
 preserveAspectRatio="xMidYMid meet">
<metadata>
Created by potrace 1.15, written by Peter Selinger 2001-2017
</metadata>
<g transform="translate(0.000000,640.000000) scale(0.100000,-0.100000)"
fill="#000000" stroke="none">
<path d="M665 5419 c-168 -13 -285 -40 -319 -74 -15 -15 -16 -129 -16 -1473
l0 -1457 -90 -3 -90 -3 0 -40 0 -40 -48 3 c-47 3 -47 3 -50 41 -3 32 -7 37
-28 37 l-24 0 0 -240 0 -240 25 0 c23 0 25 4 25 40 l0 40 50 0 50 0 0 -40 0
-40 90 0 c69 0 92 -3 96 -14 18 -48 219 -83 538 -94 l210 -7 59 -137 59 -138
137 0 136 0 13 -77 c34 -213 206 -399 413 -448 191 -45 385 12 522 153 91 95
157 237 157 339 0 32 1 33 43 33 l42 0 17 -86 c23 -122 67 -204 152 -290 204
-204 512 -219 742 -37 96 77 176 223 192 352 l7 56 133 5 134 5 64 135 64 135
2262 3 2263 2 90 -140 90 -139 86 -1 87 0 11 -74 c28 -193 126 -333 293 -421
161 -85 346 -85 507 0 166 88 264 229 292 421 l12 75 41 -3 41 -3 6 -65 c33
-322 352 -549 668 -475 209 50 372 216 416 422 8 37 15 80 15 95 l0 27 106 3
106 3 78 135 78 135 208 7 c319 11 520 46 538 94 4 11 27 14 96 14 l90 0 0 40
0 40 50 0 50 0 0 -40 c0 -36 3 -40 25 -40 l25 0 0 240 0 240 -24 0 c-21 0 -25
-5 -28 -37 -3 -38 -3 -38 -50 -41 l-48 -3 0 40 0 40 -90 3 -90 3 0 1457 c0
1344 -1 1458 -16 1473 -36 36 -145 60 -339 74 -171 13 -11281 13 -11450 0z"/>
</g>
</svg>
